<svg width="1616" height="141" viewBox="0 0 1616 141" fill="none" xmlns="http://www.w3.org/2000/svg">
<path d="M81.016 130.164L76.26 107.04L69.7 137.872L42.312 140.168L25.912 131.968L0 9.46L29.684 6.99999L46.084 15.2L49.692 34.552L55.596 6.17999L81.672 4.048L97.416 12.248L102.5 37.012L108.896 3.06399L135.464 0.767992L151.864 8.96799L126.608 136.068L97.416 138.528L81.016 130.164ZM110.208 4.70399L97.416 74.24C97.3067 75.224 97.1427 76.4813 96.924 78.012C96.8147 79.5427 96.7053 80.964 96.596 82.276C96.4867 83.4787 96.432 84.08 96.432 84.08H95.94C95.94 84.08 95.8853 83.4787 95.776 82.276C95.6667 81.0733 95.5027 79.7067 95.284 78.176C95.0653 76.536 94.8467 75.2787 94.628 74.404L80.196 5.852L56.908 7.81999L44.116 71.944C43.8973 73.256 43.624 74.9507 43.296 77.028C42.968 79.1053 42.6947 81.0187 42.476 82.768C42.3667 84.408 42.312 85.228 42.312 85.228H41.82C41.82 85.228 41.7653 84.4627 41.656 82.932C41.5467 81.292 41.328 79.4333 41 77.356C40.7813 75.1693 40.508 73.256 40.18 71.616L28.208 8.804L1.968 11.1L27.224 130.164L51.824 128.196L65.928 62.596C66.1467 61.5027 66.3653 59.8627 66.584 57.676C66.912 55.38 67.1307 53.248 67.24 51.28C67.4587 49.312 67.568 48.328 67.568 48.328L68.06 48.164C68.06 48.164 68.1147 49.148 68.224 51.116C68.4427 52.9747 68.6613 55.052 68.88 57.348C69.208 59.5347 69.4813 61.1747 69.7 62.268L82.328 128.688L108.732 126.392L133.332 2.736L110.208 4.70399ZM225.777 140.168C225.011 140.277 224.191 140.332 223.317 140.332C222.551 140.332 221.786 140.332 221.021 140.332C215.335 140.332 210.087 139.512 205.277 137.872C200.575 136.341 195.983 134.537 191.501 132.46C179.802 126.665 171.219 118.52 165.753 108.024C160.395 97.4187 157.717 84.8453 157.717 70.304C157.717 61.776 158.755 53.5213 160.833 45.54C163.019 37.4493 166.245 30.1787 170.509 23.728C174.773 17.168 180.075 11.8107 186.417 7.65599C192.867 3.50133 200.411 1.04133 209.049 0.275999C209.923 0.16666 210.743 0.111991 211.509 0.111991C212.274 0.111991 213.039 0.111991 213.805 0.111991C219.271 0.111991 224.137 0.822658 228.401 2.24399C232.665 3.556 236.983 5.08666 241.357 6.83599C249.229 10.0067 255.789 14.708 261.037 20.94C266.285 27.172 270.221 34.4973 272.845 42.916C275.469 51.2253 276.781 60.136 276.781 69.648C276.781 78.504 275.742 86.9773 273.665 95.068C271.587 103.159 268.417 110.484 264.153 117.044C259.998 123.495 254.695 128.743 248.245 132.788C241.903 136.943 234.414 139.403 225.777 140.168ZM209.213 130.328C217.631 129.672 224.957 127.376 231.189 123.44C237.421 119.395 242.559 114.201 246.605 107.86C250.65 101.409 253.657 94.248 255.625 86.376C257.702 78.3947 258.741 70.0853 258.741 61.448C258.741 53.576 257.811 46.0867 255.953 38.98C254.203 31.764 251.47 25.368 247.753 19.792C244.035 14.216 239.334 9.84266 233.649 6.67199C228.073 3.39199 221.458 1.75199 213.805 1.75199C213.039 1.75199 212.274 1.75199 211.509 1.75199C210.853 1.75199 210.087 1.80666 209.213 1.916C200.794 2.68133 193.469 5.08666 187.237 9.13199C181.005 13.068 175.811 18.2613 171.657 24.712C167.502 31.0533 164.386 38.16 162.309 46.032C160.341 53.7947 159.357 61.8853 159.357 70.304C159.357 78.504 160.286 86.2667 162.145 93.592C164.003 100.808 166.791 107.204 170.509 112.78C174.226 118.247 178.927 122.565 184.613 125.736C190.298 128.907 196.913 130.492 204.457 130.492C205.331 130.492 206.151 130.492 206.917 130.492C207.682 130.492 208.447 130.437 209.213 130.328ZM209.213 104.908C208.775 104.908 208.338 104.963 207.901 105.072C207.573 105.072 207.19 105.072 206.753 105.072C200.193 105.072 194.999 102.229 191.173 96.544C187.455 90.8587 185.597 81.3467 185.597 68.008C185.597 58.496 186.635 50.8427 188.713 45.048C190.79 39.2533 193.633 34.9893 197.241 32.256C200.849 29.4133 204.839 27.828 209.213 27.5C209.65 27.5 210.087 27.5 210.525 27.5C210.962 27.3907 211.399 27.336 211.837 27.336C218.287 27.336 223.317 30.124 226.925 35.7C230.533 41.1667 232.337 50.5693 232.337 63.908C232.337 78.1213 230.15 88.3987 225.777 94.74C221.513 100.972 215.991 104.361 209.213 104.908ZM208.721 103.268C215.171 102.721 220.419 99.4413 224.465 93.428C228.619 87.4147 230.697 77.5747 230.697 63.908C230.697 57.676 230.314 52.3733 229.549 48C228.783 43.6267 227.635 40.0733 226.105 37.34C225.558 37.2307 225.011 37.176 224.465 37.176C223.918 37.0667 223.371 37.012 222.825 37.012C216.374 37.012 211.563 40.4013 208.393 47.18C205.222 53.8493 203.637 63.5253 203.637 76.208C203.637 82.5493 204.074 87.9613 204.949 92.444C205.823 96.8173 207.081 100.425 208.721 103.268ZM348.783 128.36L337.139 107.368V137.216L308.931 139.676L292.531 131.476V6.83599L333.695 3.22799C334.57 3.11866 335.39 3.06399 336.155 3.06399C337.03 3.06399 337.85 3.06399 338.615 3.06399C344.956 3.06399 351.079 4.04799 356.983 6.01599C362.887 7.98399 368.19 10.8813 372.891 14.708C377.592 18.5347 381.31 23.1813 384.043 28.648C386.776 34.0053 388.143 40.128 388.143 47.016C388.143 64.4 381.802 76.9187 369.119 84.572L396.835 133.936L365.183 136.56L348.783 128.36ZM350.423 75.716C357.202 71.9987 362.176 67.0787 365.347 60.956C368.518 54.8333 370.103 47.4533 370.103 38.816C370.103 28.648 367.26 20.448 361.575 14.216C355.999 7.87466 348.127 4.70399 337.959 4.70399C337.303 4.70399 336.647 4.70399 335.991 4.70399C335.335 4.70399 334.624 4.75866 333.859 4.868L294.171 8.31199V129.836L319.099 127.704V84.408L326.151 83.752L349.603 126.72L377.647 124.26L350.423 75.716ZM319.099 29.796L329.923 28.812H331.727C335.335 28.812 338.342 29.9053 340.747 32.092C343.262 34.1693 344.519 37.832 344.519 43.08C344.519 48.5467 343.207 52.8107 340.583 55.872C337.959 58.824 334.406 60.5187 329.923 60.956L319.099 61.94V29.796ZM337.139 56.856C340.966 54.1227 342.879 49.5307 342.879 43.08C342.879 42.3147 342.824 41.604 342.715 40.948C342.715 40.292 342.66 39.636 342.551 38.98L337.139 39.472V56.856ZM464.13 128.688L450.846 106.548V137.708L422.802 140.168L406.402 131.968V7.328L434.446 4.868L450.846 13.068V21.924L461.834 4.048L493.486 1.26L509.886 9.46L472.658 67.844L513.166 134.1L480.53 136.888L464.13 128.688ZM490.37 3.22799L462.818 5.688L432.806 54.724V6.67199L408.042 8.804V130.164L432.806 128.196V93.264L439.038 83.588L464.95 127.048L493.814 124.424L454.29 59.808L490.37 3.22799ZM570.723 131.312V6.67199L641.407 0.439996L657.807 8.64V35.536L615.167 39.308V49.148L632.715 47.508L649.115 55.708V82.276L615.167 85.392V100.808L644.195 98.184L660.595 106.384V133.116L587.123 139.512L570.723 131.312ZM597.127 104.088V75.716L631.075 72.6V49.312L597.127 52.428V29.632L639.767 25.86V2.24399L572.363 8.14799V129.672L642.555 123.44V99.988L597.127 104.088ZM726.32 128.524L718.776 114.256L707.952 138.036L676.464 140.824L660.064 132.624L692.864 64.4L663.508 7.49199L695.488 4.70399L711.888 12.904L715.332 19.464L722.056 3.88399L753.708 1.096L770.108 9.29599L742.064 69.156L776.012 133.936L742.72 136.724L726.32 128.524ZM750.92 3.06399L723.04 5.52399L710.248 35.7L694.504 6.508L665.968 8.96799L694.668 64.236L662.852 130.656L690.404 128.36L708.116 89.656L727.304 126.884L756.824 124.26L723.86 61.12L750.92 3.06399ZM782.289 131.64V6.99999L824.765 3.22799C825.421 3.11866 826.022 3.06399 826.569 3.06399C827.225 3.06399 827.881 3.06399 828.537 3.06399C832.91 3.06399 837.12 3.71999 841.165 5.032C845.21 6.34399 849.474 8.03866 853.957 10.116C862.376 13.8333 868.772 18.8627 873.145 25.204C877.518 31.436 879.705 39.5813 879.705 49.64C879.705 63.416 876.206 74.3493 869.209 82.44C862.212 90.5307 852.7 95.068 840.673 96.052L826.897 97.2V137.38L798.689 139.84L782.289 131.64ZM824.109 86.212C835.808 85.228 844.992 80.8547 851.661 73.092C858.33 65.22 861.665 54.6693 861.665 41.44C861.665 34.1147 860.353 27.7187 857.729 22.252C855.105 16.7853 851.333 12.5213 846.413 9.46C841.602 6.28933 835.753 4.70399 828.865 4.70399C828.209 4.70399 827.553 4.70399 826.897 4.70399C826.241 4.70399 825.585 4.75866 824.929 4.868L783.929 8.47599V130L808.857 127.868V87.524L824.109 86.212ZM808.857 29.96L820.009 28.976C820.446 28.976 820.829 28.976 821.157 28.976C821.594 28.8667 821.977 28.812 822.305 28.812C826.35 28.812 829.521 30.0147 831.817 32.42C834.222 34.716 835.425 38.7613 835.425 44.556C835.425 50.5693 833.949 55.052 830.997 58.004C828.045 60.956 824.382 62.6507 820.009 63.088L808.857 64.072V29.96ZM826.897 59.316C829.084 57.7853 830.778 55.872 831.981 53.576C833.184 51.28 833.785 48.2733 833.785 44.556C833.785 42.26 833.621 40.456 833.293 39.144L826.897 39.636V59.316ZM895.519 131.312V6.67199L966.203 0.439996L982.603 8.64V35.536L939.963 39.308V49.148L957.511 47.508L973.911 55.708V82.276L939.963 85.392V100.808L968.991 98.184L985.391 106.384V133.116L911.919 139.512L895.519 131.312ZM921.923 104.088V75.716L955.871 72.6V49.312L921.923 52.428V29.632L964.563 25.86V2.24399L897.159 8.14799V129.672L967.351 123.44V99.988L921.923 104.088ZM1055.87 128.36L1044.23 107.368V137.216L1016.02 139.676L999.621 131.476V6.83599L1040.79 3.22799C1041.66 3.11866 1042.48 3.06399 1043.25 3.06399C1044.12 3.06399 1044.94 3.06399 1045.71 3.06399C1052.05 3.06399 1058.17 4.04799 1064.07 6.01599C1069.98 7.98399 1075.28 10.8813 1079.98 14.708C1084.68 18.5347 1088.4 23.1813 1091.13 28.648C1093.87 34.0053 1095.23 40.128 1095.23 47.016C1095.23 64.4 1088.89 76.9187 1076.21 84.572L1103.93 133.936L1072.27 136.56L1055.87 128.36ZM1057.51 75.716C1064.29 71.9987 1069.27 67.0787 1072.44 60.956C1075.61 54.8333 1077.19 47.4533 1077.19 38.816C1077.19 28.648 1074.35 20.448 1068.67 14.216C1063.09 7.87466 1055.22 4.70399 1045.05 4.70399C1044.39 4.70399 1043.74 4.70399 1043.08 4.70399C1042.43 4.70399 1041.71 4.75866 1040.95 4.868L1001.26 8.31199V129.836L1026.19 127.704V84.408L1033.24 83.752L1056.69 126.72L1084.74 124.26L1057.51 75.716ZM1026.19 29.796L1037.01 28.812H1038.82C1042.43 28.812 1045.43 29.9053 1047.84 32.092C1050.35 34.1693 1051.61 37.832 1051.61 43.08C1051.61 48.5467 1050.3 52.8107 1047.67 55.872C1045.05 58.824 1041.5 60.5187 1037.01 60.956L1026.19 61.94V29.796ZM1044.23 56.856C1048.06 54.1227 1049.97 49.5307 1049.97 43.08C1049.97 42.3147 1049.91 41.604 1049.81 40.948C1049.81 40.292 1049.75 39.636 1049.64 38.98L1044.23 39.472V56.856ZM1114.31 129.672V5.032L1142.85 2.40799L1159.25 10.608V135.248L1130.71 137.708L1114.31 129.672ZM1115.95 6.508V127.868L1141.21 125.572V4.212L1115.95 6.508ZM1181.08 131.312V6.67199L1251.76 0.439996L1268.16 8.64V35.536L1225.52 39.308V49.148L1243.07 47.508L1259.47 55.708V82.276L1225.52 85.392V100.808L1254.55 98.184L1270.95 106.384V133.116L1197.48 139.512L1181.08 131.312ZM1207.48 104.088V75.716L1241.43 72.6V49.312L1207.48 52.428V29.632L1250.12 25.86V2.24399L1182.72 8.14799V129.672L1252.91 123.44V99.988L1207.48 104.088ZM1342.09 128.524L1329.79 100.808V137.544L1301.58 140.004L1285.18 131.804V7.164L1311.75 4.868L1328.15 13.068L1340.28 39.308V4.048L1368.82 1.42399L1385.22 9.624V134.428L1358.49 136.724L1342.09 128.524ZM1341.92 5.52399V51.444C1341.92 52.6467 1341.98 54.6147 1342.09 57.348C1342.2 59.972 1342.31 62.76 1342.42 65.712C1342.63 68.5547 1342.8 71.0147 1342.91 73.092C1343.02 75.06 1343.07 76.044 1343.07 76.044L1342.58 76.372C1342.58 76.372 1342.42 75.7707 1342.09 74.568C1341.87 73.3653 1341.49 71.944 1340.94 70.304C1340.39 68.5547 1339.79 66.9693 1339.14 65.548L1310.76 6.67199L1286.82 8.64V130L1311.75 128.032V85.064C1311.75 83.752 1311.69 81.5107 1311.58 78.34C1311.47 75.1693 1311.36 71.8347 1311.26 68.336C1311.26 64.8373 1311.2 61.8853 1311.09 59.48C1310.98 56.9653 1310.93 55.708 1310.93 55.708L1311.42 55.544C1311.42 55.544 1311.69 56.6373 1312.24 58.824C1312.9 60.9013 1313.77 63.088 1314.86 65.384L1343.56 126.884L1367.18 124.752V3.22799L1341.92 5.52399ZM1472.84 48.328C1472.08 46.4693 1471.26 44.72 1470.38 43.08C1469.62 41.44 1468.8 39.9093 1467.92 38.488C1460.27 39.3627 1454.75 43.1347 1451.36 49.804C1447.97 56.4733 1446.27 65.1653 1446.27 75.88C1446.27 87.688 1447.91 96.4893 1451.19 102.284C1451.52 102.175 1452.01 102.12 1452.67 102.12C1455.95 101.792 1458.74 100.589 1461.03 98.512C1463.44 96.3253 1465.46 93.6467 1467.1 90.476C1468.85 87.196 1470.27 83.752 1471.37 80.144L1511.22 100.316C1507.28 112.124 1502.03 121.472 1495.47 128.36C1488.91 135.248 1479.78 139.184 1468.09 140.168C1467.21 140.277 1466.28 140.332 1465.3 140.332C1464.42 140.332 1463.55 140.332 1462.67 140.332C1455.02 140.332 1447.48 138.965 1440.04 136.232C1432.72 133.608 1426.1 129.453 1420.2 123.768C1414.4 118.083 1409.76 110.812 1406.26 101.956C1402.76 92.9907 1401.01 82.276 1401.01 69.812C1401.01 60.628 1402.16 51.9907 1404.45 43.9C1406.75 35.7 1410.08 28.484 1414.46 22.252C1418.94 16.02 1424.3 10.9907 1430.53 7.164C1436.87 3.228 1444.03 0.931997 1452.01 0.275999C1452.89 0.16666 1453.76 0.111991 1454.64 0.111991C1455.51 0.111991 1456.39 0.111991 1457.26 0.111991C1466.01 0.111991 1473.94 1.97066 1481.04 5.688C1488.26 9.40533 1494.44 14.3253 1499.57 20.448C1504.82 26.5707 1508.81 33.3493 1511.55 40.784L1489.24 56.528L1472.84 48.328ZM1472.35 82.604C1471.37 85.7747 1470 88.9453 1468.25 92.116C1466.5 95.2867 1464.37 97.9653 1461.85 100.152C1459.34 102.229 1456.33 103.432 1452.83 103.76C1452.4 103.869 1451.9 103.924 1451.36 103.924C1450.92 103.924 1450.43 103.924 1449.88 103.924C1442.88 103.924 1437.53 101.081 1433.81 95.396C1430.09 89.7107 1428.23 80.472 1428.23 67.68C1428.23 56.2 1430.09 47.016 1433.81 40.128C1437.53 33.24 1443.54 29.4133 1451.85 28.648H1453.65C1459.01 28.648 1463.17 30.3427 1466.12 33.732C1469.18 37.1213 1471.64 41.1667 1473.5 45.868L1493.18 32.092C1491.21 26.844 1488.64 21.924 1485.47 17.332C1482.41 12.74 1478.47 9.02266 1473.66 6.17999C1468.96 3.22799 1463.17 1.75199 1456.28 1.75199C1455.62 1.75199 1454.97 1.75199 1454.31 1.75199C1453.65 1.75199 1452.94 1.80666 1452.18 1.916C1444.42 2.572 1437.47 4.81333 1431.35 8.64C1425.23 12.3573 1420.03 17.2773 1415.77 23.4C1411.51 29.5227 1408.23 36.5747 1405.93 44.556C1403.74 52.428 1402.65 60.8467 1402.65 69.812C1402.65 82.276 1404.45 93.0453 1408.06 102.12C1411.78 111.195 1416.97 118.192 1423.64 123.112C1430.42 128.032 1438.29 130.492 1447.26 130.492C1447.91 130.492 1448.57 130.492 1449.23 130.492C1449.99 130.492 1450.76 130.437 1451.52 130.328C1462.89 129.453 1471.69 125.736 1477.93 119.176C1484.27 112.507 1489.24 103.815 1492.85 93.1L1472.35 82.604ZM1526.05 131.312V6.67199L1596.74 0.439996L1613.14 8.64V35.536L1570.5 39.308V49.148L1588.05 47.508L1604.45 55.708V82.276L1570.5 85.392V100.808L1599.53 98.184L1615.93 106.384V133.116L1542.45 139.512L1526.05 131.312ZM1552.46 104.088V75.716L1586.41 72.6V49.312L1552.46 52.428V29.632L1595.1 25.86V2.24399L1527.69 8.14799V129.672L1597.89 123.44V99.988L1552.46 104.088Z" fill="#2D3939" fill-opacity="0.04"/>
</svg>
