<svg width="84" height="946" viewBox="0 0 84 946" fill="none" xmlns="http://www.w3.org/2000/svg">
<path d="M6.904 47.424L20.44 44.64L2.392 40.8L1.048 24.768L5.848 15.168L77.56 0L79 17.376L74.2 26.976L62.872 29.088L79.48 32.544L80.728 47.808L75.928 57.024L61.432 60L81.304 63.744L82.648 79.296L77.848 88.896L3.448 74.112L2.008 57.024L6.904 47.424ZM80.344 64.512L39.64 57.024C39.064 56.96 38.328 56.864 37.432 56.736C36.536 56.672 35.704 56.608 34.936 56.544C34.232 56.48 33.88 56.448 33.88 56.448V56.16C33.88 56.16 34.232 56.128 34.936 56.064C35.64 56 36.44 55.904 37.336 55.776C38.296 55.648 39.032 55.52 39.544 55.392L79.672 46.944L78.52 33.312L40.984 25.824C40.216 25.696 39.224 25.536 38.008 25.344C36.792 25.152 35.672 24.992 34.648 24.864C33.688 24.8 33.208 24.768 33.208 24.768V24.48C33.208 24.48 33.656 24.448 34.552 24.384C35.512 24.32 36.6 24.192 37.816 24C39.096 23.872 40.216 23.712 41.176 23.52L77.944 16.512L76.6 1.152L6.904 15.936L8.056 30.336L46.456 38.592C47.096 38.72 48.056 38.848 49.336 38.976C50.68 39.168 51.928 39.296 53.08 39.36C54.232 39.488 54.808 39.552 54.808 39.552L54.904 39.84C54.904 39.84 54.328 39.872 53.176 39.936C52.088 40.064 50.872 40.192 49.528 40.32C48.248 40.512 47.288 40.672 46.648 40.8L7.768 48.192L9.112 63.648L81.496 78.048L80.344 64.512ZM1.048 132.162C0.984 131.714 0.952 131.234 0.952 130.722C0.952 130.274 0.952 129.826 0.952 129.378C0.952 126.05 1.432 122.978 2.392 120.162C3.288 117.41 4.344 114.722 5.56 112.098C8.952 105.25 13.72 100.226 19.864 97.026C26.072 93.89 33.432 92.322 41.944 92.322C46.936 92.322 51.768 92.93 56.44 94.146C61.176 95.426 65.432 97.314 69.208 99.81C73.048 102.306 76.184 105.41 78.616 109.122C81.048 112.898 82.488 117.314 82.936 122.37C83 122.882 83.032 123.362 83.032 123.81C83.032 124.258 83.032 124.706 83.032 125.154C83.032 128.354 82.616 131.202 81.784 133.698C81.016 136.194 80.12 138.722 79.096 141.282C77.24 145.89 74.488 149.73 70.84 152.802C67.192 155.874 62.904 158.178 57.976 159.714C53.112 161.25 47.896 162.018 42.328 162.018C37.144 162.018 32.184 161.41 27.448 160.194C22.712 158.978 18.424 157.122 14.584 154.626C10.808 152.194 7.736 149.09 5.368 145.314C2.936 141.602 1.496 137.218 1.048 132.162ZM6.808 122.466C7.192 127.394 8.536 131.682 10.84 135.33C13.208 138.978 16.248 141.986 19.96 144.354C23.736 146.722 27.928 148.482 32.536 149.634C37.208 150.85 42.072 151.458 47.128 151.458C51.736 151.458 56.12 150.914 60.28 149.826C64.504 148.802 68.248 147.202 71.512 145.026C74.776 142.85 77.336 140.098 79.192 136.77C81.112 133.506 82.072 129.634 82.072 125.154C82.072 124.706 82.072 124.258 82.072 123.81C82.072 123.426 82.04 122.978 81.976 122.466C81.528 117.538 80.12 113.25 77.752 109.602C75.448 105.954 72.408 102.914 68.632 100.482C64.92 98.05 60.76 96.226 56.152 95.01C51.608 93.858 46.872 93.282 41.944 93.282C37.144 93.282 32.6 93.826 28.312 94.914C24.088 96.002 20.344 97.634 17.08 99.81C13.88 101.986 11.352 104.738 9.496 108.066C7.64 111.394 6.712 115.266 6.712 119.682C6.712 120.194 6.712 120.674 6.712 121.122C6.712 121.57 6.744 122.018 6.808 122.466ZM21.688 122.466C21.688 122.21 21.656 121.954 21.592 121.698C21.592 121.506 21.592 121.282 21.592 121.026C21.592 117.186 23.256 114.146 26.584 111.906C29.912 109.73 35.48 108.642 43.288 108.642C48.856 108.642 53.336 109.25 56.728 110.466C60.12 111.682 62.616 113.346 64.216 115.458C65.88 117.57 66.808 119.906 67 122.466C67 122.722 67 122.978 67 123.234C67.064 123.49 67.096 123.746 67.096 124.002C67.096 127.778 65.464 130.722 62.2 132.834C59 134.946 53.496 136.002 45.688 136.002C37.368 136.002 31.352 134.722 27.64 132.162C23.992 129.666 22.008 126.434 21.688 122.466ZM22.648 122.178C22.968 125.954 24.888 129.026 28.408 131.394C31.928 133.826 37.688 135.042 45.688 135.042C49.336 135.042 52.44 134.818 55 134.37C57.56 133.922 59.64 133.25 61.24 132.354C61.304 132.034 61.336 131.714 61.336 131.394C61.4 131.074 61.432 130.754 61.432 130.434C61.432 126.658 59.448 123.842 55.48 121.986C51.576 120.13 45.912 119.202 38.488 119.202C34.776 119.202 31.608 119.458 28.984 119.97C26.424 120.482 24.312 121.218 22.648 122.178ZM7.96 204.166L20.248 197.35H2.776L1.336 180.838L6.136 171.238L79.096 171.238L81.208 195.334C81.272 195.846 81.304 196.326 81.304 196.774C81.304 197.286 81.304 197.766 81.304 198.214C81.304 201.926 80.728 205.51 79.576 208.966C78.424 212.422 76.728 215.526 74.488 218.278C72.248 221.03 69.528 223.206 66.328 224.806C63.192 226.406 59.608 227.206 55.576 227.206C45.4 227.206 38.072 223.494 33.592 216.07L4.696 232.294L3.16 213.766L7.96 204.166ZM38.776 205.126C40.952 209.094 43.832 212.006 47.416 213.862C51 215.718 55.32 216.646 60.376 216.646C66.328 216.646 71.128 214.982 74.776 211.654C78.488 208.39 80.344 203.782 80.344 197.83C80.344 197.446 80.344 197.062 80.344 196.678C80.344 196.294 80.312 195.878 80.248 195.43L78.232 172.198L7.096 172.198L8.344 186.79H33.688L34.072 190.918L8.92 204.646L10.36 221.062L38.776 205.126ZM65.656 186.79L66.232 193.126V194.182C66.232 196.294 65.592 198.054 64.312 199.462C63.096 200.934 60.952 201.67 57.88 201.67C54.68 201.67 52.184 200.902 50.392 199.366C48.664 197.83 47.672 195.75 47.416 193.126L46.84 186.79H65.656ZM49.816 197.35C51.416 199.59 54.104 200.71 57.88 200.71C58.328 200.71 58.744 200.678 59.128 200.614C59.512 200.614 59.896 200.582 60.28 200.518L59.992 197.35H49.816ZM7.768 271.686L20.728 263.91H2.488L1.048 247.494L5.848 237.894L78.808 237.894L80.248 254.31L75.448 263.91H70.264L80.728 270.342L82.36 288.87L77.56 298.47L43.384 276.678L4.6 300.39L2.968 281.286L7.768 271.686ZM81.208 287.046L79.768 270.918L51.064 253.35H79.192L77.944 238.854L6.904 238.854L8.056 253.35H28.504L34.168 256.998L8.728 272.166L10.264 289.062L48.088 265.926L81.208 287.046ZM6.232 334.082H79.192L82.84 375.458L78.04 385.058H62.296L60.088 360.098H54.328L55.288 370.37L50.488 379.97H34.936L33.112 360.098H24.088L25.624 377.09L20.824 386.69H5.176L1.432 343.682L6.232 334.082ZM22.168 349.538H38.776L40.6 369.41H54.232L52.408 349.538H65.752L67.96 374.498H81.784L78.328 335.042H7.192L10.84 376.13H24.568L22.168 349.538ZM7.864 425.163L16.216 420.747L2.296 414.411L0.664 395.979L5.464 386.379L45.4 405.579L78.712 388.395L80.344 407.115L75.544 416.715L71.704 418.731L80.824 422.667L82.456 441.195L77.656 450.795L42.616 434.379L4.696 454.251L3.064 434.763L7.864 425.163ZM81.304 439.563L79.864 423.243L62.2 415.755L79.288 406.539L77.848 389.835L45.496 406.635L6.616 388.011L7.96 404.139L30.616 414.507L8.824 425.739L10.36 443.019L47.32 423.723L81.304 439.563ZM6.04 457.925H79L81.208 482.789C81.272 483.173 81.304 483.525 81.304 483.845C81.304 484.229 81.304 484.613 81.304 484.997C81.304 487.557 80.92 490.021 80.152 492.389C79.384 494.757 78.392 497.253 77.176 499.877C75 504.805 72.056 508.549 68.344 511.109C64.696 513.669 59.928 514.949 54.04 514.949C45.976 514.949 39.576 512.901 34.84 508.805C30.104 504.709 27.448 499.141 26.872 492.101L26.2 484.037H2.68L1.24 467.525L6.04 457.925ZM32.632 482.405C33.208 489.253 35.768 494.629 40.312 498.533C44.92 502.437 51.096 504.389 58.84 504.389C63.128 504.389 66.872 503.621 70.072 502.085C73.272 500.549 75.768 498.341 77.56 495.461C79.416 492.645 80.344 489.221 80.344 485.189C80.344 484.805 80.344 484.421 80.344 484.037C80.344 483.653 80.312 483.269 80.248 482.885L78.136 458.885H7L8.248 473.477H31.864L32.632 482.405ZM65.56 473.477L66.136 480.005C66.136 480.261 66.136 480.485 66.136 480.677C66.2 480.933 66.232 481.157 66.232 481.349C66.232 483.717 65.528 485.573 64.12 486.917C62.776 488.325 60.408 489.029 57.016 489.029C53.496 489.029 50.872 488.165 49.144 486.437C47.416 484.709 46.424 482.565 46.168 480.005L45.592 473.477H65.56ZM48.376 484.037C49.272 485.317 50.392 486.309 51.736 487.013C53.08 487.717 54.84 488.069 57.016 488.069C58.36 488.069 59.416 487.973 60.184 487.781L59.896 484.037H48.376ZM6.232 524.207H79.192L82.84 565.583L78.04 575.183H62.296L60.088 550.223H54.328L55.288 560.495L50.488 570.095H34.936L33.112 550.223H24.088L25.624 567.215L20.824 576.815H5.176L1.432 533.807L6.232 524.207ZM22.168 539.663H38.776L40.6 559.535H54.232L52.408 539.663H65.752L67.96 564.623H81.784L78.328 525.167H7.192L10.84 566.255H24.568L22.168 539.663ZM7.96 618.072L20.248 611.256H2.776L1.336 594.744L6.136 585.144H79.096L81.208 609.24C81.272 609.752 81.304 610.232 81.304 610.68C81.304 611.192 81.304 611.672 81.304 612.12C81.304 615.832 80.728 619.416 79.576 622.872C78.424 626.328 76.728 629.432 74.488 632.184C72.248 634.936 69.528 637.112 66.328 638.712C63.192 640.312 59.608 641.112 55.576 641.112C45.4 641.112 38.072 637.4 33.592 629.976L4.696 646.2L3.16 627.672L7.96 618.072ZM38.776 619.032C40.952 623 43.832 625.912 47.416 627.768C51 629.624 55.32 630.552 60.376 630.552C66.328 630.552 71.128 628.888 74.776 625.56C78.488 622.296 80.344 617.688 80.344 611.736C80.344 611.352 80.344 610.968 80.344 610.584C80.344 610.2 80.312 609.784 80.248 609.336L78.232 586.104H7.096L8.344 600.696H33.688L34.072 604.824L8.92 618.552L10.36 634.968L38.776 619.032ZM65.656 600.696L66.232 607.032V608.088C66.232 610.2 65.592 611.96 64.312 613.368C63.096 614.84 60.952 615.576 57.88 615.576C54.68 615.576 52.184 614.808 50.392 613.272C48.664 611.736 47.672 609.656 47.416 607.032L46.84 600.696H65.656ZM49.816 611.256C51.416 613.496 54.104 614.616 57.88 614.616C58.328 614.616 58.744 614.584 59.128 614.52C59.512 614.52 59.896 614.488 60.28 614.424L59.992 611.256H49.816ZM7.192 652.28H80.152L81.688 668.984L76.888 678.584H3.928L2.488 661.88L7.192 652.28ZM79.288 653.24H8.248L9.592 668.024H80.632L79.288 653.24ZM6.232 691.363H79.192L82.84 732.739L78.04 742.339H62.296L60.088 717.379H54.328L55.288 727.651L50.488 737.251H34.936L33.112 717.379H24.088L25.624 734.371L20.824 743.971H5.176L1.432 700.963L6.232 691.363ZM22.168 706.819H38.776L40.6 726.691H54.232L52.408 706.819H65.752L67.96 731.779H81.784L78.328 692.323H7.192L10.84 733.411H24.568L22.168 706.819ZM7.864 785.612L24.088 778.412H2.584L1.144 761.9L5.944 752.3H78.904L80.248 767.852L75.448 777.452L60.088 784.556H80.728L82.264 801.26L77.464 810.86H4.408L3.064 795.212L7.864 785.612ZM79.864 785.516H52.984C52.28 785.516 51.128 785.548 49.528 785.612C47.992 785.676 46.36 785.74 44.632 785.804C42.968 785.932 41.528 786.028 40.312 786.092C39.16 786.156 38.584 786.188 38.584 786.188L38.392 785.9C38.392 785.9 38.744 785.804 39.448 785.612C40.152 785.484 40.984 785.26 41.944 784.94C42.968 784.62 43.896 784.268 44.728 783.884L79.192 767.276L78.04 753.26H7L8.152 767.852H33.304C34.072 767.852 35.384 767.82 37.24 767.756C39.096 767.692 41.048 767.628 43.096 767.564C45.144 767.564 46.872 767.532 48.28 767.468C49.752 767.404 50.488 767.372 50.488 767.372L50.584 767.66C50.584 767.66 49.944 767.82 48.664 768.14C47.448 768.524 46.168 769.036 44.824 769.676L8.824 786.476L10.072 800.3H81.208L79.864 785.516ZM54.808 862.151C55.896 861.703 56.92 861.223 57.88 860.711C58.84 860.263 59.736 859.783 60.568 859.271C60.056 854.791 57.848 851.559 53.944 849.575C50.04 847.591 44.952 846.599 38.68 846.599C31.768 846.599 26.616 847.559 23.224 849.479C23.288 849.671 23.32 849.959 23.32 850.343C23.512 852.263 24.216 853.895 25.432 855.239C26.712 856.647 28.28 857.831 30.136 858.791C32.056 859.815 34.072 860.647 36.184 861.287L24.376 884.615C17.464 882.311 11.992 879.239 7.96 875.399C3.928 871.559 1.624 866.215 1.048 859.367C0.984 858.855 0.952 858.311 0.952 857.735C0.952 857.223 0.952 856.711 0.952 856.199C0.952 851.719 1.752 847.303 3.352 842.951C4.888 838.663 7.32 834.791 10.648 831.335C13.976 827.943 18.232 825.223 23.416 823.175C28.664 821.127 34.936 820.103 42.232 820.103C47.608 820.103 52.664 820.775 57.4 822.119C62.2 823.463 66.424 825.415 70.072 827.975C73.72 830.599 76.664 833.735 78.904 837.383C81.208 841.095 82.552 845.287 82.936 849.959C83 850.471 83.032 850.983 83.032 851.495C83.032 852.007 83.032 852.519 83.032 853.031C83.032 858.151 81.944 862.791 79.768 866.951C77.592 871.175 74.712 874.791 71.128 877.799C67.544 880.871 63.576 883.207 59.224 884.807L50.008 871.751L54.808 862.151ZM34.744 861.863C32.888 861.287 31.032 860.487 29.176 859.463C27.32 858.439 25.752 857.191 24.472 855.719C23.256 854.247 22.552 852.487 22.36 850.439C22.296 850.183 22.264 849.895 22.264 849.575C22.264 849.319 22.264 849.031 22.264 848.711C22.264 844.615 23.928 841.479 27.256 839.303C30.584 837.127 35.992 836.039 43.48 836.039C50.2 836.039 55.576 837.127 59.608 839.303C63.64 841.479 65.88 844.999 66.328 849.863V850.919C66.328 854.055 65.336 856.487 63.352 858.215C61.368 860.007 59 861.447 56.248 862.535L64.312 874.055C67.384 872.903 70.264 871.399 72.952 869.543C75.64 867.751 77.816 865.447 79.48 862.631C81.208 859.879 82.072 856.487 82.072 852.455C82.072 852.071 82.072 851.687 82.072 851.303C82.072 850.919 82.04 850.503 81.976 850.055C81.592 845.511 80.28 841.447 78.04 837.863C75.864 834.279 72.984 831.239 69.4 828.743C65.816 826.247 61.688 824.327 57.016 822.983C52.408 821.703 47.48 821.063 42.232 821.063C34.936 821.063 28.632 822.119 23.32 824.231C18.008 826.407 13.912 829.447 11.032 833.351C8.152 837.319 6.712 841.927 6.712 847.175C6.712 847.559 6.712 847.943 6.712 848.327C6.712 848.775 6.744 849.223 6.808 849.671C7.32 856.327 9.496 861.479 13.336 865.127C17.24 868.839 22.328 871.751 28.6 873.863L34.744 861.863ZM6.232 893.3H79.192L82.84 934.676L78.04 944.276H62.296L60.088 919.316H54.328L55.288 929.588L50.488 939.188H34.936L33.112 919.316H24.088L25.624 936.308L20.824 945.908H5.176L1.432 902.9L6.232 893.3ZM22.168 908.756H38.776L40.6 928.628H54.232L52.408 908.756H65.752L67.96 933.716H81.784L78.328 894.26H7.192L10.84 935.348H24.568L22.168 908.756Z" fill="#2D3939" fill-opacity="0.04"/>
</svg>
