<svg width="150" height="45" viewBox="0 0 150 45" fill="none" xmlns="http://www.w3.org/2000/svg">
<path d="M27.016 45L11.912 25.16V45H0.968V0.0719986H11.912V19.784L26.888 0.0719986H39.752L22.344 22.088L40.392 45H27.016ZM56.537 8.84V17.928H71.193V26.376H56.537V36.232H73.113V45H45.593V0.0719986H73.113V8.84H56.537ZM91.162 8.84V17.928H105.818V26.376H91.162V36.232H107.738V45H80.218V0.0719986H107.738V8.84H91.162ZM149.083 14.536C149.083 17.1387 148.486 19.528 147.291 21.704C146.096 23.8373 144.262 25.5653 141.787 26.888C139.312 28.2107 136.24 28.872 132.571 28.872H125.787V45H114.843V0.0719986H132.571C136.155 0.0719986 139.184 0.690665 141.659 1.928C144.134 3.16533 145.99 4.872 147.227 7.048C148.464 9.224 149.083 11.72 149.083 14.536ZM131.739 20.168C133.83 20.168 135.387 19.6773 136.411 18.696C137.435 17.7147 137.947 16.328 137.947 14.536C137.947 12.744 137.435 11.3573 136.411 10.376C135.387 9.39467 133.83 8.904 131.739 8.904H125.787V20.168H131.739Z" fill="#2D3939" fill-opacity="0.02"/>
</svg>
