<svg width="594" height="180" viewBox="0 0 594 180" fill="none" xmlns="http://www.w3.org/2000/svg">
<path d="M105.064 180L44.648 100.64V180H0.872001V0.287994H44.648V79.136L104.552 0.287994H156.008L86.376 88.352L158.568 180H105.064ZM223.148 35.36V71.712H281.772V105.504H223.148V144.928H289.452V180H179.372V0.287994H289.452V35.36H223.148ZM361.648 35.36V71.712H420.272V105.504H361.648V144.928H427.952V180H317.872V0.287994H427.952V35.36H361.648ZM593.332 58.144C593.332 68.5547 590.943 78.112 586.164 86.816C581.385 95.3493 574.047 102.261 564.148 107.552C554.249 112.843 541.961 115.488 527.284 115.488H500.148V180H456.372V0.287994H527.284C541.62 0.287994 553.737 2.76266 563.636 7.71199C573.535 12.6613 580.959 19.488 585.908 28.192C590.857 36.896 593.332 46.88 593.332 58.144ZM523.956 80.672C532.319 80.672 538.548 78.7093 542.644 74.784C546.74 70.8587 548.788 65.312 548.788 58.144C548.788 50.976 546.74 45.4293 542.644 41.504C538.548 37.5787 532.319 35.616 523.956 35.616H500.148V80.672H523.956Z" fill="#2D3939" fill-opacity="0.02"/>
</svg>
