<svg width="24" height="24" viewBox="0 0 24 24" fill="none" xmlns="http://www.w3.org/2000/svg">
<g clip-path="url(#clip0_49_932)">
<path d="M19.5 0H4.5C2.019 0 0 2.019 0 4.5V19.5C0 21.981 2.019 24 4.5 24H19.5C21.981 24 24 21.981 24 19.5V4.5C24 2.019 21.981 0 19.5 0ZM23 19.5C23 21.43 21.43 23 19.5 23H4.5C2.57 23 1 21.43 1 19.5V4.5C1 2.57 2.57 1 4.5 1H19.5C21.43 1 23 2.57 23 4.5V19.5ZM16.361 12H12.5V5.5C12.5 5.224 12.276 5 12 5C11.724 5 11.5 5.224 11.5 5.5V12H7.639C7.115 12 6.663 12.302 6.459 12.79C6.256 13.275 6.363 13.829 6.731 14.202L11.092 18.621C11.334 18.866 11.656 19.001 12 19.001C12.344 19.001 12.666 18.866 12.908 18.621L17.268 14.203C17.636 13.83 17.743 13.276 17.54 12.791C17.336 12.304 16.885 12.001 16.36 12.001L16.361 12ZM16.557 13.499L12.197 17.917C12.091 18.024 11.909 18.024 11.804 17.917L7.444 13.499C7.319 13.373 7.36 13.23 7.382 13.175C7.404 13.123 7.473 13 7.639 13H16.361C16.527 13 16.596 13.123 16.618 13.175C16.641 13.231 16.682 13.373 16.557 13.499Z" fill="black"/>
</g>
<defs>
<clipPath id="clip0_49_932">
<rect width="24" height="24" fill="white"/>
</clipPath>
</defs>
</svg>
